<?xml version="1.0" encoding="UTF-8"?>
<svg width="260px" height="120px" viewBox="0 0 260 120" version="1.1" xmlns="http://www.w3.org/2000/svg" xmlns:xlink="http://www.w3.org/1999/xlink">
    <!-- Generator: Sketch 46.1 (44463) - http://www.bohemiancoding.com/sketch -->
    <title>Artboard Copy</title>
    <desc>Created with Sketch.</desc>
    <defs></defs>
    <g id="Page-1" stroke="none" stroke-width="1" fill="none" fill-rule="evenodd">
        <g id="Artboard-Copy" fill="#F6B221">
            <g id="wifim_svg" transform="translate(66.000000, 24.000000)">
                <g id="Layer_1">
                    <g id="Group">
                        <g transform="translate(15.016760, 63.251692)" id="Shape">
                            <path d="M0.14301676,7.18769231 L1.35865922,5.46264615 C1.93072626,6.03766154 2.78882682,6.46892308 3.78994413,6.46892308 C4.21899441,6.46892308 4.64804469,6.32516923 4.64804469,6.03766154 C4.64804469,5.31889231 0.429050279,6.03766154 0.429050279,3.01883077 C0.429050279,1.72504615 1.50167598,0.431261538 3.57541899,0.431261538 C4.79106145,0.431261538 5.93519553,0.790646154 6.79329609,1.50941538 L5.57765363,3.16258462 C4.93407821,2.65944615 4.07597765,2.37193846 3.36089385,2.37193846 C2.93184358,2.37193846 2.78882682,2.51569231 2.78882682,2.73132308 C2.78882682,3.45009231 6.93631285,2.8032 6.93631285,5.67827692 C6.93631285,7.40332308 5.72067039,8.33772308 3.71843575,8.33772308 C2.07374302,8.4096 0.929608939,7.97833846 0.14301676,7.18769231 L0.14301676,7.18769231 Z"></path>
                            <path d="M7.43687151,4.45636923 C7.43687151,2.08443077 9.22458101,0.431261538 11.5128492,0.431261538 C13.8011173,0.431261538 15.5888268,2.08443077 15.5888268,4.45636923 C15.5888268,6.82830769 13.8011173,8.48147692 11.5128492,8.48147692 C9.22458101,8.48147692 7.43687151,6.82830769 7.43687151,4.45636923 L7.43687151,4.45636923 Z M13.372067,4.45636923 C13.372067,3.37821538 12.6569832,2.51569231 11.5843575,2.51569231 C10.5117318,2.51569231 9.79664804,3.37821538 9.79664804,4.45636923 C9.79664804,5.53452308 10.5117318,6.39704615 11.5843575,6.39704615 C12.6569832,6.39704615 13.372067,5.53452308 13.372067,4.45636923 L13.372067,4.45636923 Z"></path>
                            <path d="M16.3039106,4.45636923 C16.3039106,2.08443077 18.0916201,0.431261538 20.4513966,0.431261538 C22.4536313,0.431261538 23.3832402,1.58129231 23.8837989,2.65944615 L21.9530726,3.59384615 C21.7385475,3.01883077 21.1664804,2.44381538 20.522905,2.44381538 C19.4502793,2.44381538 18.6636872,3.30633846 18.6636872,4.38449231 C18.6636872,5.46264615 19.3787709,6.32516923 20.522905,6.32516923 C21.1664804,6.32516923 21.8100559,5.82203077 21.9530726,5.17513846 L23.8837989,6.10953846 C23.4547486,7.11581538 22.4536313,8.33772308 20.4513966,8.33772308 C18.0916201,8.4096 16.3039106,6.82830769 16.3039106,4.45636923 L16.3039106,4.45636923 Z"></path>
                            <polygon points="24.8134078 8.33772308 24.8134078 0.575015385 27.101676 0.575015385 27.101676 8.33772308"></polygon>
                            <path d="M33.5374302,8.33772308 L33.2513966,7.40332308 L30.5340782,7.40332308 L30.2480447,8.33772308 L27.673743,8.33772308 L30.4625698,0.575015385 L33.322905,0.575015385 L36.1117318,8.33772308 L33.5374302,8.33772308 L33.5374302,8.33772308 Z M31.8927374,2.87507692 L31.1776536,5.39076923 L32.6793296,5.39076923 L31.8927374,2.87507692 L31.8927374,2.87507692 Z"></path>
                            <polygon points="36.7553073 8.33772308 36.7553073 0.575015385 39.0435754 0.575015385 39.0435754 6.25329231 41.9039106 6.25329231 41.9039106 8.26584615 36.7553073 8.26584615"></polygon>
                            <polygon points="51.0569832 8.33772308 51.0569832 5.39076923 48.3396648 5.39076923 48.3396648 8.33772308 46.0513966 8.33772308 46.0513966 0.575015385 48.3396648 0.575015385 48.3396648 3.30633846 51.0569832 3.30633846 51.0569832 0.575015385 53.3452514 0.575015385 53.3452514 8.33772308"></polygon>
                            <path d="M54.4178771,4.45636923 C54.4178771,2.08443077 56.2055866,0.431261538 58.4938547,0.431261538 C60.7821229,0.431261538 62.6413408,2.08443077 62.6413408,4.45636923 C62.6413408,6.82830769 60.8536313,8.48147692 58.4938547,8.48147692 C56.2055866,8.4096 54.4178771,6.82830769 54.4178771,4.45636923 L54.4178771,4.45636923 Z M60.2815642,4.45636923 C60.2815642,3.37821538 59.5664804,2.51569231 58.4938547,2.51569231 C57.4212291,2.51569231 56.7061453,3.37821538 56.7061453,4.45636923 C56.7061453,5.53452308 57.4212291,6.39704615 58.4938547,6.39704615 C59.5664804,6.39704615 60.2815642,5.53452308 60.2815642,4.45636923 L60.2815642,4.45636923 Z"></path>
                            <polygon points="65.0011173 8.33772308 65.0011173 2.65944615 62.9988827 2.65944615 62.9988827 0.646892308 69.2916201 0.646892308 69.2916201 2.65944615 67.2893855 2.65944615 67.2893855 8.33772308"></polygon>
                            <path d="M69.649162,7.18769231 L70.8648045,5.46264615 C71.4368715,6.03766154 72.2949721,6.46892308 73.2960894,6.46892308 C73.7251397,6.46892308 74.1541899,6.32516923 74.1541899,6.03766154 C74.1541899,5.31889231 69.9351955,6.03766154 69.9351955,3.01883077 C69.9351955,1.72504615 71.0078212,0.431261538 73.0815642,0.431261538 C74.2972067,0.431261538 75.4413408,0.790646154 76.2994413,1.50941538 L75.0837989,3.16258462 C74.4402235,2.65944615 73.5821229,2.37193846 72.8670391,2.37193846 C72.4379888,2.37193846 72.2949721,2.51569231 72.2949721,2.73132308 C72.2949721,3.45009231 76.4424581,2.8032 76.4424581,5.67827692 C76.4424581,7.40332308 75.2268156,8.33772308 73.224581,8.33772308 C71.5798883,8.4096 70.4357542,7.97833846 69.649162,7.18769231 L69.649162,7.18769231 Z"></path>
                            <path d="M77.372067,8.33772308 L77.372067,0.575015385 L81.3765363,0.575015385 C83.1642458,0.575015385 84.0938547,1.79692308 84.0938547,3.23446154 C84.0938547,4.672 83.1642458,5.89390769 81.3765363,5.89390769 L79.6603352,5.89390769 L79.6603352,8.33772308 L77.372067,8.33772308 L77.372067,8.33772308 Z M81.8055866,3.23446154 C81.8055866,2.8032 81.5195531,2.58756923 81.0905028,2.58756923 L79.6603352,2.58756923 L79.6603352,3.80947692 L81.0905028,3.80947692 C81.4480447,3.80947692 81.8055866,3.66572308 81.8055866,3.23446154 L81.8055866,3.23446154 Z"></path>
                            <path d="M84.6659218,4.45636923 C84.6659218,2.08443077 86.4536313,0.431261538 88.7418994,0.431261538 C91.0301676,0.431261538 92.8893855,2.08443077 92.8893855,4.45636923 C92.8893855,6.82830769 91.101676,8.48147692 88.7418994,8.48147692 C86.4536313,8.4096 84.6659218,6.82830769 84.6659218,4.45636923 L84.6659218,4.45636923 Z M90.5296089,4.45636923 C90.5296089,3.37821538 89.8145251,2.51569231 88.7418994,2.51569231 C87.6692737,2.51569231 86.9541899,3.37821538 86.9541899,4.45636923 C86.9541899,5.53452308 87.6692737,6.39704615 88.7418994,6.39704615 C89.8145251,6.39704615 90.5296089,5.53452308 90.5296089,4.45636923 L90.5296089,4.45636923 Z"></path>
                            <polygon points="95.3206704 8.33772308 95.3206704 2.65944615 93.3184358 2.65944615 93.3184358 0.646892308 99.6111732 0.646892308 99.6111732 2.65944615 97.6089385 2.65944615 97.6089385 8.33772308"></polygon>
                        </g>
                        <g id="Shape">
                            <g transform="translate(0.000000, 28.750769)">
                                <path d="M49.698324,0.503138462 L43.6916201,0.503138462 L43.0480447,0.503138462 L37.6134078,0.503138462 C36.898324,0.503138462 36.2547486,0.718769231 35.6826816,1.07815385 C35.1106145,1.50941538 34.7530726,2.01255385 34.6100559,2.51569231 L30.8201117,16.9629538 L26.3150838,2.51569231 C26.1005587,1.8688 25.7430168,1.36566154 25.1709497,1.00627692 C24.6703911,0.646892308 24.0268156,0.503138462 23.2402235,0.503138462 L21.3094972,0.503138462 C20.5944134,0.503138462 19.950838,0.718769231 19.3787709,1.15003077 C18.8782123,1.58129231 18.5206704,2.01255385 18.3061453,2.58756923 L13.7296089,17.1067077 L9.86815642,2.65944615 C9.72513966,2.01255385 9.29608939,1.50941538 8.79553073,1.15003077 C8.22346369,0.790646154 7.57988827,0.575015385 6.86480447,0.575015385 L1.28715084,0.575015385 C1.00111732,0.575015385 0.715083799,0.718769231 0.572067039,0.9344 C0.429050279,1.15003077 0.357541899,1.43753846 0.429050279,1.72504615 L9.22458101,29.8289231 C9.36759777,30.1883077 9.65363128,30.4758154 10.0826816,30.4758154 L16.0893855,30.4758154 C16.4469274,30.4758154 16.8044693,30.2601846 16.947486,29.8289231 L22.0960894,13.5847385 L27.1731844,29.8289231 C27.3162011,30.1883077 27.6022346,30.4758154 28.0312849,30.4758154 L34.0379888,30.4758154 C34.3955307,30.4758154 34.7530726,30.2601846 34.8960894,29.8289231 L42.1184358,6.75643077 L42.2614525,6.75643077 L42.2614525,29.4695385 C42.2614525,29.9726769 42.6905028,30.3320615 43.1195531,30.3320615 L49.7698324,30.3320615 C50.2703911,30.3320615 50.627933,29.9726769 50.627933,29.4695385 L50.627933,1.43753846 C50.627933,0.9344 50.1988827,0.503138462 49.698324,0.503138462 L49.698324,0.503138462 Z"></path>
                                <path d="M73.1530726,0.503138462 L54.775419,0.503138462 C54.2748603,0.503138462 53.9173184,0.862523077 53.9173184,1.36566154 L53.9173184,29.4695385 C53.9173184,29.9726769 54.3463687,30.3320615 54.775419,30.3320615 L61.4256983,30.3320615 C61.926257,30.3320615 62.2837989,29.9726769 62.2837989,29.4695385 L62.2837989,19.4067692 L71.150838,19.4067692 C71.6513966,19.4067692 72.0089385,19.0473846 72.0089385,18.5442462 L72.0089385,13.5128615 C72.0089385,13.0097231 71.5798883,12.6503385 71.150838,12.6503385 L62.2837989,12.6503385 L62.2837989,7.33144615 L73.0815642,7.33144615 C73.5821229,7.33144615 73.9396648,6.97206154 73.9396648,6.46892308 L73.9396648,1.43753846 C74.0826816,0.9344 73.6536313,0.503138462 73.1530726,0.503138462 L73.1530726,0.503138462 Z"></path>
                                <path d="M127.57095,29.2539077 L118.703911,1.15003077 C118.560894,0.790646154 118.27486,0.503138462 117.84581,0.503138462 L111.839106,0.503138462 C111.481564,0.503138462 111.124022,0.718769231 110.981006,1.15003077 L105.832402,17.3942154 L100.755307,1.15003077 C100.612291,0.790646154 100.326257,0.503138462 99.8972067,0.503138462 L93.8905028,0.503138462 C93.5329609,0.503138462 93.175419,0.718769231 93.0324022,1.15003077 L85.8100559,24.5100308 L85.8100559,1.43753846 C85.8100559,0.9344 85.3810056,0.575015385 84.9519553,0.575015385 L78.301676,0.575015385 C77.8011173,0.575015385 77.4435754,0.9344 77.4435754,1.43753846 L77.4435754,29.4695385 C77.4435754,29.9726769 77.8726257,30.3320615 78.301676,30.3320615 L84.3083799,30.3320615 L84.9519553,30.3320615 L90.3865922,30.3320615 C91.101676,30.3320615 91.7452514,30.1164308 92.3173184,29.7570462 C92.8893855,29.3257846 93.2469274,28.8226462 93.3899441,28.3195077 L97.1798883,13.8722462 L101.684916,28.3195077 C101.899441,28.9664 102.256983,29.4695385 102.82905,29.8289231 C103.329609,30.1883077 103.973184,30.3320615 104.759777,30.3320615 L106.690503,30.3320615 C107.405587,30.3320615 108.049162,30.1164308 108.621229,29.6851692 C109.121788,29.2539077 109.47933,28.8226462 109.693855,28.2476308 L114.270391,13.7284923 L118.131844,28.1757538 C118.27486,28.8226462 118.703911,29.3257846 119.204469,29.6851692 C119.776536,30.0445538 120.420112,30.2601846 121.135196,30.2601846 L126.712849,30.2601846 C126.998883,30.2601846 127.284916,30.1164308 127.427933,29.9008 C127.57095,29.7570462 127.642458,29.4695385 127.57095,29.2539077 L127.57095,29.2539077 Z"></path>
                            </g>
                            <g transform="translate(42.905028, 0.000000)">
                                <path d="M1.00111732,8.33772308 C0.357541899,8.98461538 0.28603352,9.70338462 0.643575419,10.5659077 C1.00111732,11.2846769 1.64469274,11.6440615 2.64581006,11.6440615 L2.64581006,11.6440615 C3.50391061,11.6440615 4.07597765,11.2128 4.71955307,10.6377846 C9.51061453,6.5408 15.3027933,4.45636923 21.1664804,4.45636923 C24.8134078,4.45636923 28.4603352,5.24701538 31.9642458,6.90018462 C34.3955307,8.05021538 36.4692737,9.70338462 37.9709497,10.9252923 C38.5430168,11.4284308 39.1865922,11.6440615 39.901676,11.5721846 C40.473743,11.5003077 41.0458101,11.2128 41.4748603,10.7096615 C42.1899441,9.84713846 41.975419,8.69710769 40.9743017,7.83458462 C35.5396648,2.87507692 28.8893855,0.287507692 21.2379888,0.215630769 C16.2324022,0.215630769 11.4413408,1.36566154 7.00782123,3.80947692 C4.64804469,5.17513846 2.64581006,6.61267692 1.00111732,8.33772308 L1.00111732,8.33772308 Z"></path>
                                <path d="M8.43798883,16.2441846 C8.93854749,16.1004308 9.29608939,15.8129231 9.72513966,15.4535385 L9.86815642,15.3097846 C14.0871508,11.8596923 18.8782123,10.4940308 24.2413408,11.4284308 C27.3162011,11.9315692 30.1050279,13.3691077 32.6793296,15.5972923 C33.2513966,16.1004308 34.0379888,16.3160615 34.7530726,16.2441846 C35.396648,16.1723077 35.9687151,15.7410462 36.326257,15.2379077 C36.8268156,14.3753846 36.5407821,13.3691077 35.6826816,12.5784615 C31.4636872,8.84086154 26.6726257,7.04393846 20.9519553,7.04393846 L20.8804469,7.04393846 L20.8804469,7.04393846 L20.4513966,7.04393846 C18.1631285,7.04393846 15.6603352,7.54707692 13.2290503,8.48147692 C10.5117318,9.48775385 8.22346369,10.9971692 6.29273743,12.7940923 C5.57765363,13.5128615 5.43463687,14.5910154 5.93519553,15.3816615 C6.43575419,16.1723077 7.43687151,16.4598154 8.43798883,16.2441846 L8.43798883,16.2441846 Z"></path>
                                <path d="M21.2379888,13.6566154 C17.3765363,13.6566154 14.0871508,14.8785231 11.2268156,17.3223385 C10.0826816,18.2567385 9.9396648,19.5505231 10.8692737,20.4849231 C11.298324,20.9161846 11.7988827,21.1318154 12.3709497,21.2036923 C13.0145251,21.2036923 13.6581006,20.9880615 14.2301676,20.4849231 C18.0916201,17.0348308 24.1698324,17.0348308 28.0312849,20.4849231 C28.603352,20.9880615 29.2469274,21.2036923 29.8189944,21.2036923 C30.3910615,21.2036923 30.8916201,20.9880615 31.3206704,20.5568 C32.1787709,19.6942769 32.1072626,18.4004923 31.0346369,17.4660923 C28.3173184,15.0222769 25.027933,13.7284923 21.2379888,13.6566154 L21.2379888,13.6566154 Z"></path>
                            </g>
                        </g>
                    </g>
                </g>
            </g>
        </g>
    </g>
</svg>